solid ASCII
  facet normal -1.000000e+00 0.000000e+00 0.000000e+00
    outer loop
      vertex   -2.540000e+01 0.000000e+00 -4.399409e+01
      vertex   -2.540000e+01 0.000000e+00 4.399409e+01
      vertex   -2.540000e+01 5.080000e+01 -4.399409e+01
    endloop
  endfacet
  facet normal -1.000000e+00 0.000000e+00 0.000000e+00
    outer loop
      vertex   -2.540000e+01 5.080000e+01 -4.399409e+01
      vertex   -2.540000e+01 0.000000e+00 4.399409e+01
      vertex   -2.540000e+01 5.080000e+01 4.399409e+01
    endloop
  endfacet
  facet normal 8.660254e-01 0.000000e+00 -5.000000e-01
    outer loop
      vertex   0.000000e+00 0.000000e+00 0.000000e+00
      vertex   -2.540000e+01 0.000000e+00 -4.399409e+01
      vertex   0.000000e+00 5.080000e+01 0.000000e+00
    endloop
  endfacet
  facet normal 8.660254e-01 0.000000e+00 -5.000000e-01
    outer loop
      vertex   0.000000e+00 5.080000e+01 0.000000e+00
      vertex   -2.540000e+01 0.000000e+00 -4.399409e+01
      vertex   -2.540000e+01 5.080000e+01 -4.399409e+01
    endloop
  endfacet
  facet normal 8.660254e-01 -0.000000e+00 5.000000e-01
    outer loop
      vertex   -2.540000e+01 0.000000e+00 4.399409e+01
      vertex   0.000000e+00 0.000000e+00 0.000000e+00
      vertex   -2.540000e+01 5.080000e+01 4.399409e+01
    endloop
  endfacet
  facet normal 8.660254e-01 0.000000e+00 5.000000e-01
    outer loop
      vertex   -2.540000e+01 5.080000e+01 4.399409e+01
      vertex   0.000000e+00 0.000000e+00 0.000000e+00
      vertex   0.000000e+00 5.080000e+01 0.000000e+00
    endloop
  endfacet
  facet normal 0.000000e+00 1.000000e+00 0.000000e+00
    outer loop
      vertex   -2.540000e+01 5.080000e+01 4.399409e+01
      vertex   0.000000e+00 5.080000e+01 0.000000e+00
      vertex   -2.540000e+01 5.080000e+01 -4.399409e+01
    endloop
  endfacet
  facet normal -0.000000e+00 -1.000000e+00 0.000000e+00
    outer loop
      vertex   0.000000e+00 0.000000e+00 0.000000e+00
      vertex   -2.540000e+01 0.000000e+00 4.399409e+01
      vertex   -2.540000e+01 0.000000e+00 -4.399409e+01
    endloop
  endfacet
endsolid
